<svg xmlns="http://www.w3.org/2000/svg" xmlns:xlink="http://www.w3.org/1999/xlink" width="615" zoomAndPan="magnify" viewBox="0 0 461.25 550.499983" height="734" preserveAspectRatio="xMidYMid meet" version="1.0"><defs><clipPath id="ec7031d859"><path d="M 0 0.195312 L 460.5 0.195312 L 460.5 549.804688 L 0 549.804688 Z M 0 0.195312 " clip-rule="nonzero"/></clipPath><clipPath id="0063f40741"><path d="M 40 56 L 409 56 L 409 370 L 40 370 Z M 40 56 " clip-rule="nonzero"/></clipPath><clipPath id="fbcd8c148a"><path d="M 423.582031 64.765625 L 359.035156 423.664062 L 0.136719 359.117188 L 64.683594 0.21875 Z M 423.582031 64.765625 " clip-rule="nonzero"/></clipPath><clipPath id="ceb7e44a6b"><path d="M 423.582031 64.765625 L 359.035156 423.664062 L 0.136719 359.117188 L 64.683594 0.21875 Z M 423.582031 64.765625 " clip-rule="nonzero"/></clipPath><clipPath id="129bb09bf9"><path d="M 38 180 L 415 180 L 415 482 L 38 482 Z M 38 180 " clip-rule="nonzero"/></clipPath><clipPath id="a80251813d"><path d="M 18.875 462.34375 L 106.132812 108.28125 L 460.195312 195.539062 L 372.9375 549.605469 Z M 18.875 462.34375 " clip-rule="nonzero"/></clipPath><clipPath id="d7e279221b"><path d="M 18.875 462.34375 L 106.132812 108.28125 L 460.195312 195.539062 L 372.9375 549.605469 Z M 18.875 462.34375 " clip-rule="nonzero"/></clipPath></defs><g clip-path="url(#ec7031d859)"><path fill="#ffffff" d="M 0 0.195312 L 460.5 0.195312 L 460.5 549.804688 L 0 549.804688 Z M 0 0.195312 " fill-opacity="1" fill-rule="nonzero"/></g><g clip-path="url(#0063f40741)"><g clip-path="url(#fbcd8c148a)"><g clip-path="url(#ceb7e44a6b)"><path fill="#bdffc0" d="M 401.371094 139.425781 C 406.683594 141.066406 410.972656 134.863281 407.386719 130.609375 C 338.996094 49.507812 218.660156 32.332031 129.828125 94.082031 C 40.996094 155.832031 15.171875 274.613281 67.363281 366.972656 C 70.097656 371.816406 77.410156 369.960938 77.722656 364.40625 C 81.265625 301.132812 120.648438 227.101562 189.179688 179.460938 C 257.714844 131.820312 340.828125 120.703125 401.371094 139.425781 Z M 401.371094 139.425781 " fill-opacity="1" fill-rule="evenodd"/></g></g></g><g clip-path="url(#129bb09bf9)"><g clip-path="url(#a80251813d)"><g clip-path="url(#d7e279221b)"><path fill="#5271ff" d="M 45.792969 389.25 C 40.59375 387.269531 35.917969 393.191406 39.226562 397.664062 C 102.316406 482.953125 221.3125 507.757812 313.894531 451.785156 C 406.476562 395.8125 439.8125 278.917969 393.605469 183.421875 C 391.183594 178.414062 383.769531 179.800781 383.105469 185.324219 C 375.539062 248.242188 331.527344 319.617188 260.097656 362.800781 C 188.671875 405.984375 105.019531 411.789062 45.792969 389.25 Z M 45.792969 389.25 " fill-opacity="1" fill-rule="evenodd"/></g></g></g></svg>